{
	"asset":{
		"generator":"Khronos glTF Blender I/O v3.6.27",
		"version":"2.0"
	},
	"extensionsUsed":[
		"KHR_materials_specular",
		"KHR_materials_ior"
	],
	"scene":0,
	"scenes":[
		{
			"name":"Scene",
			"nodes":[
				0
			]
		}
	],
	"nodes":[
		{
			"mesh":0,
			"name":"spaceArm",
			"rotation":[
				0.5601208209991455,
				-0.4315839111804962,
				0.4315839111804962,
				0.5601208209991455
			],
			"translation":[
				15.014872550964355,
				0,
				-24.340505599975586
			]
		}
	],
	"materials":[
		{
			"alphaMode":"BLEND",
			"doubleSided":true,
			"extensions":{
				"KHR_materials_specular":{
					"specularColorFactor":[
						1,
						1,
						1
					]
				},
				"KHR_materials_ior":{
					"ior":1
				}
			},
			"name":"initialShadingGroup.002",
			"pbrMetallicRoughness":{
				"metallicFactor":0
			}
		},
		{
			"alphaMode":"BLEND",
			"doubleSided":true,
			"extensions":{
				"KHR_materials_specular":{
					"specularColorFactor":[
						1,
						1,
						1
					]
				},
				"KHR_materials_ior":{
					"ior":0
				}
			},
			"name":"standardSurface5SG",
			"pbrMetallicRoughness":{
				"baseColorFactor":[
					0,
					0,
					0,
					1
				],
				"metallicFactor":0
			}
		}
	],
	"meshes":[
		{
			"name":"spaceArm",
			"primitives":[
				{
					"attributes":{
						"POSITION":0,
						"NORMAL":1,
						"TEXCOORD_0":2
					},
					"indices":3,
					"material":0
				},
				{
					"attributes":{
						"POSITION":4,
						"NORMAL":5,
						"TEXCOORD_0":6
					},
					"indices":7,
					"material":1
				}
			]
		}
	],
	"accessors":[
		{
			"bufferView":0,
			"componentType":5126,
			"count":2943,
			"max":[
				0.5032939910888672,
				12.129512786865234,
				0.41550499200820923
			],
			"min":[
				-0.5032939910888672,
				-0.4286389946937561,
				-10.225502014160156
			],
			"type":"VEC3"
		},
		{
			"bufferView":1,
			"componentType":5126,
			"count":2943,
			"type":"VEC3"
		},
		{
			"bufferView":2,
			"componentType":5126,
			"count":2943,
			"type":"VEC2"
		},
		{
			"bufferView":3,
			"componentType":5123,
			"count":7656,
			"type":"SCALAR"
		},
		{
			"bufferView":4,
			"componentType":5126,
			"count":10,
			"max":[
				0.4286380112171173,
				10.231728553771973,
				-9.266571998596191
			],
			"min":[
				0.25194698572158813,
				7.590068817138672,
				-10.123995780944824
			],
			"type":"VEC3"
		},
		{
			"bufferView":5,
			"componentType":5126,
			"count":10,
			"type":"VEC3"
		},
		{
			"bufferView":6,
			"componentType":5126,
			"count":10,
			"type":"VEC2"
		},
		{
			"bufferView":7,
			"componentType":5123,
			"count":24,
			"type":"SCALAR"
		}
	],
	"bufferViews":[
		{
			"buffer":0,
			"byteLength":35316,
			"byteOffset":0,
			"target":34962
		},
		{
			"buffer":0,
			"byteLength":35316,
			"byteOffset":35316,
			"target":34962
		},
		{
			"buffer":0,
			"byteLength":23544,
			"byteOffset":70632,
			"target":34962
		},
		{
			"buffer":0,
			"byteLength":15312,
			"byteOffset":94176,
			"target":34963
		},
		{
			"buffer":0,
			"byteLength":120,
			"byteOffset":109488,
			"target":34962
		},
		{
			"buffer":0,
			"byteLength":120,
			"byteOffset":109608,
			"target":34962
		},
		{
			"buffer":0,
			"byteLength":80,
			"byteOffset":109728,
			"target":34962
		},
		{
			"buffer":0,
			"byteLength":48,
			"byteOffset":109808,
			"target":34963
		}
	],
	"buffers":[
		{
			"byteLength":109856,
			"uri":"data:application/octet-stream;base64,"
		}
	]
}
