{
	"asset":{
		"generator":"Khronos glTF Blender I/O v3.6.27",
		"version":"2.0"
	},
	"scene":0,
	"scenes":[
		{
			"name":"Scene",
			"nodes":[
				0
			]
		}
	],
	"nodes":[
		{
			"mesh":0,
			"name":"Main Room",
			"scale":[
				6,
				2.5,
				8
			],
			"translation":[
				-8.751962661743164,
				0,
				16.634389877319336
			]
		}
	],
	"materials":[
		{
			"doubleSided":true,
			"name":"CreativeRoomPedestal",
			"pbrMetallicRoughness":{
				"baseColorFactor":[
					0.5776962041854858,
					0.5776962041854858,
					0.5776962041854858,
					1
				],
				"metallicFactor":0,
				"roughnessFactor":0.5
			}
		}
	],
	"meshes":[
		{
			"name":"Cube.001",
			"primitives":[
				{
					"attributes":{
						"POSITION":0,
						"NORMAL":1,
						"TEXCOORD_0":2
					},
					"indices":3,
					"material":0
				}
			]
		}
	],
	"accessors":[
		{
			"bufferView":0,
			"componentType":5126,
			"count":157,
			"max":[
				1.5556362867355347,
				0.5113837122917175,
				-1.9874831438064575
			],
			"min":[
				1.3678592443466187,
				0,
				-2.1283159255981445
			],
			"type":"VEC3"
		},
		{
			"bufferView":1,
			"componentType":5126,
			"count":157,
			"type":"VEC3"
		},
		{
			"bufferView":2,
			"componentType":5126,
			"count":157,
			"type":"VEC2"
		},
		{
			"bufferView":3,
			"componentType":5123,
			"count":276,
			"type":"SCALAR"
		}
	],
	"bufferViews":[
		{
			"buffer":0,
			"byteLength":1884,
			"byteOffset":0,
			"target":34962
		},
		{
			"buffer":0,
			"byteLength":1884,
			"byteOffset":1884,
			"target":34962
		},
		{
			"buffer":0,
			"byteLength":1256,
			"byteOffset":3768,
			"target":34962
		},
		{
			"buffer":0,
			"byteLength":552,
			"byteOffset":5024,
			"target":34963
		}
	],
	"buffers":[
		{
			"byteLength":5576,
			"uri":"data:application/octet-stream;base64,"
		}
	]
}
